Patient4_TMGait_0pt7_02_right_17_GRF.mot
version=1
nRows=78
nColumns=19
inDegrees=no
endheader
time	F1x	F1y	F1z	M1x	M1y	M1z	F2x	F2y	F2z	M2x	M2y	M2z	EC1x	EC1y	EC1z	EC2x	EC2y	EC2z
18.65	-11.5994	765.3325	66.2679	-270.5748	-68.0897	776.3524	13.5963	6.0389	2.5742	0.55767	-1.5207	7.2591	-0.0592	0.0182	-0.0073	-0.0462	0.0165	0.9585
18.6613	-5.2112	754.6974	65.7469	-266.1855	-65.3342	765.8654	8.999	5.3138	1.8679	0.80338	-1.0418	6.4575	-0.0592	0.0182	-0.0073	-0.0462	0.0165	0.9585
18.6726	1.013	743.4486	65.3437	-261.5635	-62.6013	753.6882	5.1461	4.7107	1.1823	1.0478	-0.59985	5.7785	-0.0592	0.0182	-0.0073	-0.0462	0.0165	0.9585
18.6839	6.7117	732.6182	65.0965	-257.1015	-60.0702	740.8804	2.224	4.2789	0.6041	1.2662	-0.23151	5.2847	-0.0592	0.0182	-0.0073	-0.0462	0.0165	0.9585
18.6951	11.7087	723.156	65.006	-253.1517	-57.8279	728.5508	0.21657	3.9958	0.16612	1.4435	0.04935	4.9402	-0.0592	0.0182	-0.0073	-0.0462	0.0165	0.9585
18.7064	15.9676	715.7508	65.0601	-249.9683	-55.9056	717.5997	-1.0253	3.8645	-0.14287	1.5851	0.25737	4.7575	-0.0592	0.0182	-0.0073	-0.0462	0.0165	0.9585
18.7177	19.5597	710.7816	65.2232	-247.6881	-54.2723	708.6068	-1.6847	3.8109	-0.3389	1.6835	0.39965	4.6426	-0.0592	0.0182	-0.0073	-0.0462	0.0165	0.9585
18.729	22.5999	708.3253	65.4509	-246.3346	-52.8646	701.8117	-1.9608	3.7891	-0.46176	1.7354	0.51234	4.5676	-0.0592	0.0182	-0.0073	-0.0462	0.0165	0.9585
18.7403	25.24	708.2169	65.7217	-245.8433	-51.622	697.1844	-1.992	3.7078	-0.53319	1.723	0.60459	4.4296	-0.0592	0.0182	-0.0073	-0.0462	0.0165	0.9585
18.7516	27.6431	710.1918	65.9905	-246.1064	-50.4571	694.5369	-1.9156	3.4831	-0.58332	1.6255	0.70133	4.1364	-0.0592	0.0182	-0.0073	-0.0462	0.0165	0.9585
18.7629	29.9076	713.9025	66.2708	-246.9815	-49.3531	693.5766	-1.7886	3.0046	-0.63526	1.4099	0.80845	3.5447	-0.0592	0.0182	-0.0073	-0.0462	0.0165	0.9585
18.7741	32.1119	719.0395	66.5394	-248.3353	-48.2639	694.0307	-1.6727	2.1578	-0.69147	1.0357	0.92073	2.5278	-0.0592	0.0182	-0.0073	-0.0462	0.0165	0.9585
18.7854	34.2685	725.2452	66.8529	-250.0159	-47.2404	695.5782	-1.5686	0.8283	-0.74803	0.46252	1.0224	0.94094	-0.0592	0.0182	-0.0073	-0.0462	0.0165	0.9585
18.7967	36.3806	732.1208	67.2343	-251.8613	-46.3092	697.8536	-1.4728	-1.0471	-0.78283	-0.33085	1.0832	-1.2866	-0.0592	0.0182	-0.0073	-0.0462	0.0165	0.9585
18.808	38.4823	739.1816	67.7548	-253.6891	-45.5351	700.418	-1.3454	-3.4586	-0.76954	-1.3319	1.0591	-4.1436	-0.0592	0.0182	-0.0073	-0.0462	0.0165	0.9585
18.8193	40.6217	745.9179	68.4483	-255.3227	-44.9381	702.7855	-1.1422	-6.2055	-0.6643	-2.4562	0.87845	-7.3938	-0.0592	0.0182	-0.0073	-0.0462	0.0165	0.9585
18.8306	42.8924	751.8826	69.3099	-256.6152	-44.4839	704.5155	-0.78655	-8.8572	-0.40938	-3.5223	0.44681	-10.5265	-0.0592	0.0182	-0.0073	-0.0462	0.0165	0.9585
18.8419	45.3656	756.6386	70.2997	-257.4328	-44.1128	705.186	-0.21613	-10.6049	0.062761	-4.1979	-0.33624	-12.5902	-0.0592	0.0182	-0.0073	-0.0462	0.0165	0.9585
18.8531	48.0604	759.7591	71.2891	-257.6554	-43.703	704.3929	0.63511	-10.1904	0.8133	-3.9705	-1.5597	-12.1149	-0.0592	0.0182	-0.0073	-0.0462	0.0165	0.9585
18.8644	50.9286	760.7898	72.1564	-257.1588	-43.1672	701.7435	1.7864	-5.8506	1.9008	-2.1238	-3.2915	-7.0226	-0.0592	0.0182	-0.0073	-0.0462	0.0165	0.9585
18.8757	53.88	759.2436	72.7051	-255.8173	-42.3706	696.8068	3.2058	4.6899	3.3231	2.2573	-5.5041	5.3681	-0.0592	0.0182	-0.0073	-0.0462	0.0165	0.9585
18.887	56.8036	754.5502	72.7826	-253.4798	-41.2276	689.0942	4.7452	23.997	5.0066	10.2025	-8.0333	28.0918	-0.0592	0.0182	-0.0073	-0.0462	0.0165	0.9585
18.8983	59.5924	745.9537	72.2064	-249.9346	-39.6247	677.9719	6.1183	54.5694	6.724	22.6996	-10.4754	64.1161	-0.0592	0.0182	-0.0073	-0.0462	0.0165	0.9585
18.9096	62.1111	732.381	70.8087	-244.8562	-37.4689	662.5095	6.683	98.2091	8.066	40.4366	-12.0769	115.5734	-0.0592	0.0182	-0.0073	-0.0462	0.0165	0.9585
18.9209	64.1642	712.3711	68.4006	-237.7777	-34.671	641.4941	5.2344	155.0486	8.474	63.4083	-11.6772	182.6365	-0.0592	0.0182	-0.0073	-0.0462	0.0165	0.9585
18.9321	65.4741	684.2024	64.7874	-228.1336	-31.164	613.5027	0.13888	222.4372	7.1186	90.4609	-7.6624	262.1956	-0.0592	0.0182	-0.0073	-0.0462	0.0165	0.9585
18.9434	65.6486	646.3093	59.8629	-215.3978	-26.9968	577.2749	-9.2556	294.4707	3.0171	119.1294	1.2825	347.2993	-0.0592	0.0182	-0.0073	-0.0462	0.0165	0.9585
18.9547	64.3003	597.7995	53.6625	-199.2567	-22.3398	532.1194	-21.3687	363.9833	-4.2416	146.5112	14.8716	429.2968	-0.0592	0.0182	-0.0073	-0.0462	0.0165	0.9585
18.966	61.0696	538.9988	46.4615	-179.7761	-17.5473	478.4016	-34.0413	426.592	-13.8481	170.8559	31.2488	502.7159	-0.0592	0.0182	-0.0073	-0.0462	0.0165	0.9585
18.9773	55.8213	471.5723	38.7665	-157.4555	-13.081	417.6097	-45.613	481.7092	-24.6554	191.9678	48.3948	566.5628	-0.0592	0.0182	-0.0073	-0.0462	0.0165	0.9585
18.9886	48.6841	398.4249	31.1939	-133.2038	-9.3886	352.2859	-55.0744	531.0967	-35.4001	210.6065	64.4706	622.759	-0.0592	0.0182	-0.0073	-0.0462	0.0165	0.9585
18.9999	40.0451	323.3093	24.2755	-108.2321	-6.7529	285.6516	-61.8735	576.679	-45.0932	227.603	78.137	673.5598	-0.0592	0.0182	-0.0073	-0.0462	0.0165	0.9585
19.0111	30.5262	250.4337	18.3242	-83.9302	-5.1939	221.3076	-65.9349	619.3843	-53.0781	243.3679	88.6423	720.1558	-0.0592	0.0182	-0.0073	-0.0462	0.0165	0.9585
19.0224	20.9968	183.8448	13.4462	-61.6631	-4.4862	162.6873	-67.4817	658.8768	-59.245	257.7808	95.9727	762.3006	-0.0592	0.0182	-0.0073	-0.0462	0.0165	0.9585
19.0337	12.4481	126.6945	9.5935	-42.5092	-4.246	112.4352	-66.9678	694.1224	-63.8543	270.4157	100.6263	798.9918	-0.0592	0.0182	-0.0073	-0.0462	0.0165	0.9585
19.045	5.6677	80.6252	6.6352	-27.0459	-4.102	71.9062	-64.8468	723.9832	-67.3959	280.7937	103.3621	829.1297	-0.0592	0.0182	-0.0073	-0.0462	0.0165	0.9585
19.0563	0.94815	45.8073	4.3769	-15.3532	-3.8001	41.209	-61.5908	747.6098	-70.2945	288.5664	104.8669	851.964	-0.0592	0.0182	-0.0073	-0.0462	0.0165	0.9585
19.0676	-1.8549	21.3589	2.6513	-7.145	-3.2615	19.578	-57.6583	764.5651	-72.7966	293.5754	105.6207	867.1854	-0.0592	0.0182	-0.0073	-0.0462	0.0165	0.9585
19.0789	-3.1211	5.7124	1.3948	-1.8958	-2.5767	5.6554	-53.4991	774.8288	-74.9346	295.8586	105.8473	874.9315	-0.0592	0.0182	-0.0073	-0.0462	0.0165	0.9585
19.0901	-3.3817	-3.0122	0.5369	1.0303	-1.8744	-2.1706	-49.4446	778.9248	-76.5509	295.6869	105.5173	875.8925	-0.0592	0.0182	-0.0073	-0.0462	0.0165	0.9585
19.1014	-3.0601	-6.8013	0.054217	2.3023	-1.2943	-5.6225	-45.6993	777.8475	-77.4854	293.5176	104.5452	871.2411	-0.0592	0.0182	-0.0073	-0.0462	0.0165	0.9585
19.1127	-2.4858	-7.4054	-0.18551	2.5055	-0.83642	-6.2331	-42.3828	772.8417	-77.6588	289.9038	102.9035	862.3857	-0.0592	0.0182	-0.0073	-0.0462	0.0165	0.9585
19.124	-1.8469	-6.236	-0.23705	2.1113	-0.5238	-5.2547	-39.5465	765.279	-77.133	285.4309	100.6911	850.8436	-0.0592	0.0182	-0.0073	-0.0462	0.0165	0.9585
19.1353	-1.2692	-4.2876	-0.19577	1.4533	-0.32045	-3.5619	-37.2113	756.4978	-76.065	280.6538	98.0968	838.054	-0.0592	0.0182	-0.0073	-0.0462	0.0165	0.9585
19.1466	-0.80031	-2.213	-0.11383	0.75352	-0.20678	-1.7395	-35.3555	747.6772	-74.6425	276.0537	95.329	825.2479	-0.0592	0.0182	-0.0073	-0.0462	0.0165	0.9585
19.1579	-0.45828	-0.35801	-0.017353	0.13321	-0.17038	-0.078021	-33.9244	739.8399	-73.0419	272.0403	92.5706	813.4724	-0.0592	0.0182	-0.0073	-0.0462	0.0165	0.9585
19.1691	-0.22797	1.1226	0.053904	-0.35826	-0.16402	1.2689	-32.8383	733.7757	-71.3946	268.9326	89.9443	803.5017	-0.0592	0.0182	-0.0073	-0.0462	0.0165	0.9585
19.1804	-0.099706	2.2037	0.12422	-0.71429	-0.19837	2.2888	-32.0191	729.9931	-69.7841	266.9381	87.5156	795.8105	-0.0592	0.0182	-0.0073	-0.0462	0.0165	0.9585
19.1917	-0.025515	2.9369	0.15681	-0.95605	-0.21825	3	-31.3617	728.6656	-68.2337	266.1351	85.2722	790.4985	-0.0592	0.0182	-0.0073	-0.0462	0.0165	0.9585
19.203	-0.002611	3.4021	0.18298	-1.1093	-0.2459	3.4697	-30.7381	729.6906	-66.7334	266.4922	83.1489	787.3727	-0.0592	0.0182	-0.0073	-0.0462	0.0165	0.9585
19.2143	0.0077637	3.6831	0.1925	-1.2024	-0.25755	3.7631	-29.9774	732.7417	-65.2389	267.8899	81.0294	786.003	-0.0592	0.0182	-0.0073	-0.0462	0.0165	0.9585
19.2256	0.00089473	3.8439	0.19699	-1.2561	-0.263	3.9498	-28.923	737.33	-63.6907	270.1398	78.7837	785.8079	-0.0592	0.0182	-0.0073	-0.0462	0.0165	0.9585
19.2369	-0.003593	3.9252	0.20391	-1.2837	-0.2666	4.06	-27.394	742.8504	-62.0329	272.9993	76.2745	786.0869	-0.0592	0.0182	-0.0073	-0.0462	0.0165	0.9585
19.2481	-0.0021895	3.9595	0.1971	-1.2956	-0.25611	4.1356	-25.2192	748.6624	-60.2307	276.1958	73.3786	786.1302	-0.0592	0.0182	-0.0073	-0.0462	0.0165	0.9585
19.2594	-0.00080387	3.956	0.21116	-1.2947	-0.26723	4.1758	-22.2314	754.106	-58.281	279.4347	70.002	785.2289	-0.0592	0.0182	-0.0073	-0.0462	0.0165	0.9585
19.2707	-0.019381	3.9165	0.23391	-1.2837	-0.2931	4.1738	-18.3381	758.5632	-56.2503	282.4227	66.1503	782.7821	-0.0592	0.0182	-0.0073	-0.0462	0.0165	0.9585
19.282	-0.061329	3.8063	0.29691	-1.2539	-0.36706	4.086	-13.5438	761.4958	-54.2369	284.8913	61.9084	778.3281	-0.0592	0.0182	-0.0073	-0.0462	0.0165	0.9585
19.2933	-0.14495	3.5724	0.38118	-1.1867	-0.47877	3.8407	-7.9549	762.5625	-52.3502	286.6436	57.4264	771.672	-0.0592	0.0182	-0.0073	-0.0462	0.0165	0.9585
19.3046	-0.26777	3.1228	0.49056	-1.0447	-0.63681	3.3257	-1.7848	761.6294	-50.704	287.5637	52.9043	762.8559	-0.0592	0.0182	-0.0073	-0.0462	0.0165	0.9585
19.3159	-0.43355	2.3529	0.6261	-0.78848	-0.84671	2.4317	4.711	758.7868	-49.3787	287.6256	48.532	752.1584	-0.0592	0.0182	-0.0073	-0.0462	0.0165	0.9585
19.3271	-0.62698	1.1642	0.77503	-0.38292	-1.0889	1.052	11.2605	754.3205	-48.4514	286.8891	44.4978	740.0673	-0.0592	0.0182	-0.0073	-0.0462	0.0165	0.9585
19.3384	-0.81782	-0.49923	0.93465	0.19268	-1.3449	-0.86907	17.6204	748.6588	-47.958	285.4863	40.9396	727.1856	-0.0592	0.0182	-0.0073	-0.0462	0.0165	0.9585
19.3497	-0.95456	-2.6259	1.0644	0.93302	-1.5513	-3.3291	23.5665	742.3485	-47.9214	283.605	37.9733	714.1987	-0.0592	0.0182	-0.0073	-0.0462	0.0165	0.9585
19.361	-0.95253	-5.0827	1.1291	1.7892	-1.6339	-6.1776	28.9215	735.9452	-48.3347	281.4528	35.6662	701.7473	-0.0592	0.0182	-0.0073	-0.0462	0.0165	0.9585
19.3723	-0.6835	-7.5278	1.0434	2.6372	-1.4426	-9.045	33.5519	729.942	-49.1894	279.22	34.0641	690.3795	-0.0592	0.0182	-0.0073	-0.0462	0.0165	0.9585
19.3836	0.013238	-9.3206	0.70592	3.2477	-0.79478	-11.2108	37.3863	724.658	-50.4538	277.0416	33.1641	680.4171	-0.0592	0.0182	-0.0073	-0.0462	0.0165	0.9585
19.3949	1.3239	-9.4448	-0.019099	3.2533	0.54079	-11.4806	40.3931	720.24	-52.0909	274.9917	32.9417	671.9811	-0.0592	0.0182	-0.0073	-0.0462	0.0165	0.9585
19.4061	3.44	-6.438	-1.2842	2.1281	2.8115	-8.1158	42.6047	716.6399	-54.0241	273.0809	33.3144	664.9598	-0.0592	0.0182	-0.0073	-0.0462	0.0165	0.9585
19.4174	6.489	1.6154	-3.2195	-0.81042	6.2164	1.1712	44.0768	713.6294	-56.1554	271.2582	34.1739	659.0696	-0.0592	0.0182	-0.0073	-0.0462	0.0165	0.9585
19.4287	10.4736	16.9565	-5.9144	-6.3536	10.8505	19.0401	44.8932	710.7954	-58.3412	269.4076	35.3603	653.8417	-0.0592	0.0182	-0.0073	-0.0462	0.0165	0.9585
19.44	15.1326	41.842	-9.316	-15.2864	16.5499	48.1771	45.1655	707.5706	-60.3846	267.3554	36.6563	648.6739	-0.0592	0.0182	-0.0073	-0.0462	0.0165	0.9585
19.4513	19.8309	77.9813	-13.1577	-28.1815	22.7568	90.633	45.0185	703.2269	-62.0461	264.8694	37.8065	642.823	-0.0592	0.0182	-0.0073	-0.0462	0.0165	0.9585
19.4626	23.3575	125.5932	-16.8028	-45.0597	28.2671	146.7484	44.5719	696.882	-63.0386	261.6602	38.5185	635.4291	-0.0592	0.0182	-0.0073	-0.0462	0.0165	0.9585
19.4739	23.8203	182.1569	-19.1149	-64.9499	31.0521	213.6501	43.949	687.4773	-63.1004	257.3733	38.5268	625.4888	-0.0592	0.0182	-0.0073	-0.0462	0.0165	0.9585
19.4851	19.4395	242.0608	-18.515	-85.7685	28.6716	284.8568	43.2678	673.8595	-62.0268	251.6171	37.6157	611.9136	-0.0592	0.0182	-0.0073	-0.0462	0.0165	0.9585
19.4964	10.8954	298.3453	-13.6385	-104.9789	19.7919	352.1319	42.6563	654.9736	-59.7541	244.0253	35.6943	593.6912	-0.0592	0.0182	-0.0073	-0.0462	0.0165	0.9585
19.5077	0.56949	344.803	-4.4059	-120.4392	5.2044	407.8053	42.2178	630.1004	-56.3983	234.3401	32.8308	570.1243	-0.0592	0.0182	-0.0073	-0.0462	0.0165	0.9585
19.519	-9.495	378.688	7.6393	-131.3165	-12.5281	448.1933	41.9866	598.9891	-52.2642	222.4612	29.2764	540.9746	-0.0592	0.0182	-0.0073	-0.0462	0.0165	0.9585
